<?xml version="1.0" encoding="utf-8"?>
<!-- Generator: Adobe Illustrator 22.1.0, SVG Export Plug-In . SVG Version: 6.00 Build 0)  -->
<svg version="1.1" id="Réteg_1" xmlns="http://www.w3.org/2000/svg" xmlns:xlink="http://www.w3.org/1999/xlink" x="0px" y="0px"
	 viewBox="0 0 841.9 297.2" style="enable-background:new 0 0 841.9 297.2;" xml:space="preserve">
<style type="text/css">
	.st0{fill:#FFFFFF;}
	.st1{fill:#FFED3D;}
	.st2{fill:#F8AB00;}
	.st3{opacity:0.39;}
</style>
<title>monei</title>
<path class="st0" d="M248.3,244.5h-33.1v-75.9c0-16.4-7.5-24.7-22.1-24.7c-12.6,0-21.6,4.9-26.7,15c0,1.1,0.3,7.5,0.3,9.5v76.2
	h-33.1v-78.2c0-13.8-7.8-22.4-21.6-22.4c-11.8,0-21,4.6-27,13.8v86.8H51.9V115.1H85v14.4c10.1-11.2,23.6-16.7,40.5-16.7
	c19.3,0,32.8,8.3,37.7,20.7c10.6-13.8,25-20.7,43.7-20.7c27.6,0,41.4,15.8,41.4,47.2L248.3,244.5z"/>
<path class="st0" d="M443.5,244.5V115.1h33.1v12.9c9.5-10.1,21.9-15.2,37.1-15.2c35.4,0,53.2,18.7,53.2,55.8v75.9h-33.1v-70.1
	c0-20.4-9.8-30.5-29-30.5c-10.6,0-19.8,4-28.2,12.4v88.3L443.5,244.5z"/>
<path class="st0" d="M711.5,231.6c-12.7,10.6-29,16.1-49.5,16.1c-21,0-37.7-6.3-50.6-18.7c-12.7-12.4-19-28.7-19-49.2
	c0-19.3,6.3-35.4,18.7-48.3s29-19.6,49.7-19.6c17,0,31.6,5.8,43.4,17s17.8,25.6,17.8,43.1c0,7.2-0.6,13.2-2,17.8h-93.4
	c2.6,19.3,18.1,30.2,38.8,30.2c14.7,0,26.7-4,36.5-11.8L711.5,231.6z M625.5,167.8H689c0.3-16.1-11.2-28.2-29.6-28.2
	C640.7,139.6,629.2,149.1,625.5,167.8L625.5,167.8z"/>
<path class="st0" d="M771,49.3c10.4-0.1,18.9,8.3,19,18.7c0,0.2,0,0.4,0,0.6c0,12.7-8.9,20.7-19,20.7c-11.8,0-20.7-8.1-20.7-20.7
	C750.3,57.1,759.5,49.3,771,49.3z M753.7,244.5V115.1h33.1v129.4H753.7z"/>
<path class="st1" d="M410.6,179.9c0,37.6-30.4,68-68,68c-5.6,0-11.2-0.7-16.7-2.1c-36.4-9.2-58.4-46.2-49.2-82.6
	s46.2-58.4,82.6-49.2C389.5,121.6,410.7,148.8,410.6,179.9L410.6,179.9z"/>
<path class="st0" d="M362.9,160.3c-0.7,0-1.3,0.1-2,0.1c-4,0.4-7.7,2.4-10.2,5.7c-0.4-0.9-0.9-1.8-1.6-2.5c-1.9-2.1-5-3.3-8.9-3.3
	c-0.6,0-1.3,0.1-1.9,0.1c-3.6,0.3-7,1.9-9.4,4.6v-4h-9.2V197h9.2v-24.2c1.2-1.9,3.2-3.2,5.4-3.7c0.7-0.1,1.5-0.2,2.2-0.2
	c3.9,0,6,2.4,6,6.2v21.9h9.3v-21.3c0-0.6-0.1-2.3-0.1-2.6c1-2.1,3-3.6,5.4-3.9c0.7-0.2,1.4-0.3,2.1-0.2c4.1,0,6.2,2.3,6.2,6.9v21.2
	h9.2v-23.6C374.5,164.7,370.6,160.3,362.9,160.3z"/>
<path class="st2" d="M360.9,160.3c-0.6,0-1.3-0.1-2-0.1c-3.6-0.1-7.1,1.1-9.9,3.3c-0.9,0.7-1.7,1.6-2.4,2.5c-1.1-3-4.2-5.1-8.4-5.7
	c-0.6,0-1.3-0.1-2.1-0.1c-2.5-0.1-5.1,0.5-7.3,1.6c-1.5,0.7-2.9,1.7-4,3v-4h-9.2V197h9.2v-24.2c1.7-2.5,4.5-4,7.6-3.9
	c0.6,0,1.2,0.1,1.8,0.2c2.5,0.6,4,2.5,4.2,5.3c0,0.2,0.1,0.5,0,0.7V197h9.2v-21.3c0-0.6,0-2.3,0-2.6c1.4-2.8,3.9-4.2,7.5-4.2
	c0.6,0,1.3,0.1,1.9,0.2c2.5,0.5,3.9,2.3,4.2,5.2l0,0c0.1,0.5,0.1,1,0.1,1.4V197h9.2v-23.6C370.5,165.5,367.3,161.1,360.9,160.3z"/>
<path class="st0" d="M342.6,236.1c-31.1,0-56.3-25.2-56.3-56.3s25.2-56.3,56.3-56.3s56.3,25.2,56.3,56.3c0,0,0,0,0,0
	C398.8,211,373.7,236.1,342.6,236.1z M342.6,128.8c-28.2,0-51.1,22.9-51.1,51.1s22.9,51.1,51.1,51.1s51.1-22.9,51.1-51.1l0,0
	C393.7,151.7,370.8,128.8,342.6,128.8z"/>
<g class="st3">
	<path class="st2" d="M374.6,197.1l-48.7,48.7c-23.3-5.9-41.7-23.6-48.5-46.6l12-12l26.2-26.2l0.1-0.1V197l9.1-9.1l4-4l9.5-9.5v0.1
		l4,6.9l4.3,7.4l0.9-0.9l4-4l9.5-9.4l4.1,13.2l2.9,9.4h2.3l4,0.1L374.6,197.1z"/>
</g>
</svg>
