<svg id="Réteg_1" data-name="Réteg 1" xmlns="http://www.w3.org/2000/svg" viewBox="0 0 427.85 456.47"><defs><style>.cls-1{fill:#ffed3d;}.cls-2{fill:#fff;}.cls-3{fill:#f8ab00;}.cls-4{opacity:0.39;}</style></defs><title>monei</title><path class="cls-1" d="M400.93,228.3c0,103.24-83.83,186.94-187.07,186.94a182.65,182.65,0,0,1-45.88-5.8A186.64,186.64,0,0,1,34.61,281.37a184.78,184.78,0,0,1-7.69-53.07c0-103.37,83.7-187.07,186.94-187.07S400.93,124.93,400.93,228.3Z"/><path class="cls-2" d="M269.7,174.22c-1.89,0-3.65.13-5.42.25a39.44,39.44,0,0,0-28.11,15.63,19,19,0,0,0-4.54-6.8c-5.16-5.68-13.61-9.08-24.45-9.08-1.76,0-3.53.13-5.29.25-10.47,1-19.16,5.17-25.85,12.61V176H150.71v99.45H176V208.76a23,23,0,0,1,14.75-10.08,43.89,43.89,0,0,1,6.05-.51c10.59,0,16.52,6.56,16.52,17.15v60.12h25.46V216.83c0-1.51-.25-6.3-.25-7.19a19.33,19.33,0,0,1,14.75-10.84,21.1,21.1,0,0,1,5.8-.63c11.21,0,17,6.3,17,18.91v58.36h25.34V210.53C301.47,186.45,290.88,174.22,269.7,174.22Z"/><path class="cls-3" d="M264.28,174.47c-1.76-.12-3.65-.25-5.54-.25-10.84,0-19.79,3-27.11,9.08a37.89,37.89,0,0,0-6.55,6.8c-3.15-8.19-11.47-14.11-23.19-15.63-1.77-.12-3.66-.25-5.68-.25A42.82,42.82,0,0,0,176,178.76a35,35,0,0,0-11,8.32V176H139.74v99.45h25.34V208.76c4.66-7.06,11.72-10.59,20.8-10.59a20.17,20.17,0,0,1,4.91.51c6.94,1.63,11,6.93,11.47,14.62a9.9,9.9,0,0,1,.13,2v60.12h25.34V216.83c0-1.51-.13-6.3-.13-7.19,3.91-7.81,10.84-11.47,20.55-11.47a16.78,16.78,0,0,1,5.17.63c6.8,1.39,10.71,6.18,11.59,14.25v.12a34.94,34.94,0,0,1,.26,3.91v58.36H290.5V210.53C290.5,188.59,281.81,176.62,264.28,174.47Z"/><path class="cls-2" d="M213.89,383c-85.31,0-154.72-69.41-154.72-154.72S128.58,73.52,213.89,73.52s154.73,69.41,154.73,154.73S299.21,383,213.89,383Zm0-295.33c-77.53,0-140.61,63.08-140.61,140.61s63.08,140.6,140.61,140.6S354.5,305.78,354.5,228.25,291.42,87.64,213.89,87.64Z"/><g class="cls-4"><path class="cls-3" d="M302,275.44l-134,134A186.64,186.64,0,0,1,34.61,281.37l33-32.9,72.11-72.11.25-.25v99.21l25.09-25.09,11-11.09,26.1-26.09.12.25,11.1,19,11.85,20.42,2.52-2.52,11.09-11.09,26.09-26,11.22,36.18,7.95,25.72,6.42.12,11,.25Z"/></g></svg>