<svg id="Réteg_1" data-name="Réteg 1" xmlns="http://www.w3.org/2000/svg" viewBox="0 0 841.89 297.18"><defs><style>.cls-1{fill:#5dc2d5;}.cls-2{fill:#ffed3d;}.cls-3{fill:#fff;}.cls-4{fill:#f8ab00;}.cls-5{opacity:0.39;}</style></defs><title>monei</title><path class="cls-1" d="M248.29,244.51H215.23v-75.9c0-16.39-7.48-24.73-22.14-24.73-12.65,0-21.56,4.89-26.74,15,0,1.15.29,7.48.29,9.49v76.19H133.58v-78.2c0-13.8-7.76-22.43-21.56-22.43-11.79,0-21,4.6-27,13.8v86.83H51.93V115.13H85v14.38c10.06-11.21,23.58-16.68,40.54-16.68,19.26,0,32.77,8.34,37.66,20.7,10.64-13.8,25-20.7,43.7-20.7,27.6,0,41.4,15.82,41.4,47.15Z"/><path class="cls-1" d="M443.52,244.51V115.13h33.06v12.94c9.49-10.06,21.85-15.24,37.09-15.24,35.36,0,53.18,18.69,53.18,55.78v75.9H533.79V174.36c0-20.42-9.77-30.48-29-30.48-10.63,0-19.83,4-28.17,12.36v88.27Z"/><path class="cls-1" d="M711.47,231.57c-12.65,10.64-29,16.1-49.45,16.1-21,0-37.66-6.33-50.6-18.69q-19-18.54-19-49.16c0-19.26,6.33-35.36,18.69-48.3s29-19.55,49.74-19.55c17,0,31.62,5.75,43.41,17s17.82,25.59,17.82,43.13c0,7.18-.57,13.22-2,17.82H626.66c2.58,19.26,18.11,30.19,38.81,30.19,14.66,0,26.74-4,36.51-11.79Zm-86-63.82H689c.29-16.1-11.21-28.18-29.61-28.18C640.74,139.57,629.24,149.06,625.51,167.75Z"/><path class="cls-1" d="M771,49.3a18.83,18.83,0,0,1,19,19.26c0,12.65-8.91,20.7-19,20.7-11.79,0-20.7-8.05-20.7-20.7C750.29,57.06,759.49,49.3,771,49.3ZM753.74,244.51V115.13H786.8V244.51Z"/><path class="cls-2" d="M410.62,179.91a68,68,0,0,1-68,68,66.3,66.3,0,0,1-16.68-2.11,68,68,0,1,1,84.69-65.86Z"/><path class="cls-3" d="M362.91,160.25c-.68,0-1.33.05-2,.09A14.33,14.33,0,0,0,350.72,166a6.75,6.75,0,0,0-1.65-2.48c-1.88-2.06-4.95-3.3-8.89-3.3-.64,0-1.28.05-1.92.09a14,14,0,0,0-9.4,4.59v-4h-9.21v36.15h9.21V172.81a8.38,8.38,0,0,1,5.36-3.67,16.74,16.74,0,0,1,2.2-.18c3.85,0,6,2.38,6,6.23v21.86h9.25V175.74c0-.55-.09-2.29-.09-2.61a7,7,0,0,1,5.37-3.94,7.68,7.68,0,0,1,2.1-.23c4.08,0,6.19,2.29,6.19,6.88v21.21h9.21v-23.6C374.46,164.7,370.61,160.25,362.91,160.25Z"/><path class="cls-4" d="M360.94,160.34c-.64,0-1.33-.09-2-.09a14.89,14.89,0,0,0-9.86,3.3,13.72,13.72,0,0,0-2.38,2.48c-1.15-3-4.17-5.13-8.43-5.69-.65,0-1.33-.09-2.07-.09a15.6,15.6,0,0,0-7.33,1.65,12.88,12.88,0,0,0-4,3v-4h-9.21v36.15h9.21V172.81a8.53,8.53,0,0,1,7.57-3.85,7.73,7.73,0,0,1,1.78.18c2.52.6,4,2.53,4.17,5.32a3.4,3.4,0,0,1,.05.73v21.86h9.21V175.74c0-.55,0-2.29,0-2.61,1.42-2.84,3.94-4.17,7.47-4.17a6.17,6.17,0,0,1,1.88.23c2.47.5,3.89,2.25,4.21,5.18v0a12.3,12.3,0,0,1,.09,1.43v21.21h9.22v-23.6Q370.48,161.5,360.94,160.34Z"/><path class="cls-3" d="M342.62,236.15a56.26,56.26,0,1,1,56.25-56.25A56.32,56.32,0,0,1,342.62,236.15Zm0-107.37a51.12,51.12,0,1,0,51.12,51.12A51.17,51.17,0,0,0,342.62,128.78Z"/><g class="cls-5"><path class="cls-4" d="M374.65,197.05l-48.72,48.72a67.87,67.87,0,0,1-48.49-46.56l12-12L315.66,161l.09-.09V197l9.12-9.12,4-4,9.49-9.49,0,.09,4,6.92,4.31,7.43.91-.92,4-4,9.49-9.45,4.08,13.16,2.89,9.35,2.34,0,4,.09Z"/></g></svg>